<?xml version="1.0" standalone="no"?>
<!DOCTYPE svg PUBLIC "-//W3C//DTD SVG 20010904//EN"
 "http://www.w3.org/TR/2001/REC-SVG-20010904/DTD/svg10.dtd">
<svg version="1.0" xmlns="http://www.w3.org/2000/svg"
 width="858.000000pt" height="980.000000pt" viewBox="0 0 858.000000 980.000000"
 preserveAspectRatio="xMidYMid meet">

<g transform="translate(0.000000,980.000000) scale(0.100000,-0.100000)"
fill="#000000" stroke="none">
<path d="M3534 9767 c30 -172 32 -576 2 -804 -117 -891 -555 -1856 -1334
-2938 -158 -219 -540 -710 -547 -703 -2 2 -8 77 -14 168 -42 599 -130 950
-339 1355 l-47 90 -7 -55 c-77 -554 -175 -825 -630 -1734 -373 -746 -495
-1081 -572 -1568 -41 -260 -53 -624 -27 -833 109 -875 627 -1588 1671 -2297
241 -164 706 -446 716 -435 2 2 -16 46 -40 98 -100 214 -194 487 -240 692 -99
440 -85 817 43 1207 86 258 179 442 416 815 200 315 237 381 360 630 157 321
275 633 341 904 l27 113 34 -53 c119 -187 212 -451 247 -708 20 -140 20 -403
1 -536 -21 -144 -21 -143 25 -90 438 506 730 1293 781 2107 11 174 1 419 -21
513 -5 22 -8 41 -6 42 4 4 211 -153 286 -216 315 -265 583 -568 825 -931 470
-708 740 -1497 806 -2360 14 -194 6 -635 -15 -820 -54 -461 -176 -897 -357
-1279 -33 -68 -57 -126 -55 -128 10 -10 425 244 631 385 167 115 245 173 425
317 1510 1208 1998 2744 1420 4475 -242 725 -677 1486 -1226 2140 -194 232
-491 535 -598 613 -28 20 -29 20 -22 1 251 -646 191 -1331 -149 -1685 -26 -27
-50 -49 -54 -49 -4 0 -20 46 -35 103 -53 190 -168 531 -248 732 -234 585 -498
1046 -860 1505 -157 198 -520 565 -708 714 -282 225 -643 441 -870 521 l-42
15 6 -33z"/>
</g>
</svg>
